<?xml version="1.0" encoding="utf-8"?>
<svg width="154px" height="77px" viewBox="0 0 244.86185 77.80405" version="1.1" xmlns:xlink="http://www.w3.org/1999/xlink" xmlns="http://www.w3.org/2000/svg">
  <g id="Группа-2">
    <g id="Группа">
      <path d="M106.452 77.5378C106.68 77.605 106.909 77.6714 107.139 77.7368C107.155 77.7592 107.171 77.7816 107.188 77.804L106.452 77.5378ZM97.9596 74.4657C80.9082 67.0554 69.5794 53.9544 69.5794 39.0288C69.5794 24.1031 80.9082 11.0021 97.9596 3.59177L0 39.0286L97.9596 74.4657ZM106.452 0.519668L107.188 0.253483C107.171 0.27588 107.155 0.298288 107.139 0.320707C106.909 0.386085 106.68 0.452408 106.452 0.519668Z" id="Треугольник-Вычитание" fill="#6B5EF0" fill-rule="evenodd" stroke="none" />
      <path d="M137.676 77.5476C137.692 77.5252 137.708 77.5027 137.724 77.4803C137.955 77.4148 138.184 77.3484 138.413 77.281L137.676 77.5476ZM146.903 74.2096L244.862 38.7742L146.905 3.33842C163.955 10.7485 175.284 23.8489 175.284 38.7738C175.284 53.6991 163.955 66.7997 146.903 74.2096ZM138.412 0.266181L137.676 2.01457e-06C137.692 0.0223991 137.709 0.0448079 137.725 0.0672283C137.954 0.132604 138.184 0.198924 138.412 0.266181Z" id="Треугольник-Вычитание-2" fill="#6B5EF0" fill-rule="evenodd" stroke="none" />
    </g>
    <path d="M167.335 49.5173L164.914 49.5173L164.914 28.8488L167.335 28.8488L167.335 49.5173ZM161.873 49.5173L159.192 49.5173L157.001 43.7232L148.238 43.7232L146.177 49.5173L143.481 49.5173L151.409 28.8488L153.917 28.8488L161.873 49.5173ZM156.208 41.5469L152.965 32.7404C152.86 32.4521 152.754 31.9909 152.648 31.3567L152.59 31.3567C152.494 31.9429 152.384 32.4041 152.259 32.7404L149.045 41.5469L156.208 41.5469ZM142.991 37.1508C142.578 36.8337 141.982 36.6752 141.204 36.6752C140.195 36.6752 139.352 37.1508 138.675 38.1021C137.997 39.0534 137.658 40.3506 137.658 41.9937L137.658 49.5173L135.295 49.5173L135.295 34.7582L137.658 34.7582L137.658 37.7994L137.716 37.7994C138.052 36.7617 138.567 35.9521 139.258 35.3708C139.95 34.7895 140.724 34.4988 141.579 34.4988C142.194 34.4988 142.665 34.5661 142.991 34.7006L142.991 37.1508ZM124.168 49.8632C121.987 49.8632 120.245 49.1738 118.943 47.795C117.641 46.4161 116.99 44.588 116.99 42.3107C116.99 39.8317 117.667 37.8955 119.022 36.5022C120.377 35.109 122.208 34.4123 124.514 34.4123C126.714 34.4123 128.432 35.0897 129.666 36.4446C130.901 37.7994 131.518 39.6779 131.518 42.0801C131.518 44.4343 130.853 46.32 129.522 47.7373C128.191 49.1546 126.407 49.8632 124.168 49.8632L124.168 49.8632ZM124.341 36.4014C122.823 36.4014 121.621 36.9178 120.737 37.9508C119.853 38.9837 119.411 40.4082 119.411 42.2243C119.411 43.9731 119.858 45.3519 120.752 46.3609C121.645 47.3698 122.842 47.8742 124.341 47.8742C125.868 47.8742 127.043 47.3794 127.865 46.3897C128.686 45.4 129.097 43.9923 129.097 42.1666C129.097 40.3217 128.686 38.8996 127.865 37.9003C127.043 36.901 125.868 36.4014 124.341 36.4014L124.341 36.4014ZM104.58 48.984L104.58 46.4473C105.868 47.3986 107.285 47.8742 108.832 47.8742C110.908 47.8742 111.945 47.1824 111.945 45.7987C111.945 45.4048 111.857 45.0709 111.679 44.797C111.501 44.5232 111.261 44.2805 110.958 44.0691C110.655 43.8578 110.3 43.668 109.892 43.4998C109.483 43.3317 109.044 43.1563 108.573 42.9737C107.919 42.7143 107.345 42.4525 106.85 42.1882C106.355 41.924 105.942 41.6261 105.611 41.2946C105.279 40.9631 105.029 40.586 104.861 40.1632C104.693 39.7404 104.609 39.2455 104.609 38.6786C104.609 37.9868 104.768 37.3742 105.085 36.8409C105.402 36.3077 105.825 35.8608 106.353 35.5005C106.882 35.1402 107.485 34.8687 108.162 34.6862C108.839 34.5036 109.538 34.4123 110.259 34.4123C111.537 34.4123 112.68 34.6333 113.689 35.0753L113.689 37.4679C112.604 36.7569 111.354 36.4013 109.942 36.4013C109.5 36.4013 109.101 36.4518 108.746 36.5527C108.39 36.6536 108.085 36.7953 107.83 36.9779C107.576 37.1604 107.379 37.379 107.239 37.6337C107.1 37.8883 107.031 38.1694 107.031 38.4768C107.031 38.8612 107.1 39.1831 107.239 39.4425C107.379 39.702 107.583 39.9326 107.852 40.1344C108.121 40.3361 108.448 40.5187 108.832 40.6821C109.216 40.8454 109.654 41.0232 110.144 41.2153C110.797 41.4652 111.383 41.7222 111.902 41.9864C112.421 42.2507 112.863 42.5486 113.228 42.8801C113.593 43.2116 113.874 43.5935 114.071 44.0259C114.268 44.4583 114.367 44.9724 114.367 45.5681C114.367 46.2984 114.206 46.9326 113.884 47.4707C113.562 48.0087 113.132 48.4556 112.594 48.8111C112.056 49.1666 111.436 49.4308 110.735 49.6038C110.033 49.7768 109.298 49.8632 108.529 49.8632C107.011 49.8632 105.695 49.5702 104.58 48.984L104.58 48.984ZM99.0456 31.0108C98.6228 31.0108 98.2625 30.8667 97.9646 30.5784C97.6667 30.2902 97.5178 29.925 97.5178 29.483C97.5178 29.041 97.6667 28.6735 97.9646 28.3804C98.2625 28.0874 98.6228 27.9408 99.0456 27.9408C99.478 27.9408 99.8455 28.0873 100.148 28.3804C100.451 28.6735 100.602 29.041 100.602 29.483C100.602 29.9058 100.451 30.2661 100.148 30.564C99.8455 30.8619 99.478 31.0108 99.0456 31.0108L99.0456 31.0108ZM100.199 45.3952C100.199 46.75 100.722 47.4274 101.77 47.4274C102.192 47.4274 102.572 47.3746 102.908 47.2689L102.908 49.402C102.726 49.4501 102.483 49.4957 102.18 49.539C101.878 49.5822 101.558 49.6038 101.222 49.6038C100.751 49.6038 100.309 49.5269 99.896 49.3732C99.4828 49.2195 99.1248 48.9841 98.8222 48.667C98.5195 48.3499 98.2793 47.9535 98.1015 47.4779C97.9238 47.0022 97.8349 46.4473 97.8349 45.8132L97.8349 34.7583L100.199 34.7583L100.199 45.3952ZM95.3414 28.8488L87.688 49.5173L85.0216 49.5173L77.5267 28.8488L80.222 28.8488L85.944 45.2366C86.1266 45.7651 86.2659 46.3753 86.362 47.0671L86.4196 47.0671C86.4965 46.4906 86.6551 45.8708 86.8953 45.2078L92.7326 28.8488L95.3414 28.8488Z" id="VisorAI" fill="#6B5EF0" stroke="none" />
  </g>
</svg>